PathFileType	4	(X/Y/Z)	C:\Users\Basilio\Documents\Thesis Gigler\squatting_fais\c3dfiles\038\SLS_back_pre5\markers_experimental.trc
DataRate	CameraRate	NumFrames	NumMarkers	Units	OrigDataRate	OrigDataStartFrame	OrigNumFrames
200.000000	200.000000	4	63	mm	200.000000	0	1674
Frame#	Time	FHD			LBHD			RBHD			C7			T10			CLAV			LSHO			LUUPA			LMUPA			LDUPA			LLEP			LMEP			LRAD			LUL			LRFIN			RSHO			RUPA1			RMUPA			RDUPA			RLEP			RMEP			RRAD			RUL			RUFIN			LASI			RASI			USACR			LSACR			RSACR			LTHI1			LTHI2			LTHI3			LTHI4			LLFC			LMFC			LTIB1			LTIB2			LTIB3			LTIB4			LLMAL			LMMAL			LHEE			LMT1			LMT2			LMT5			RTHI			RTHI2			RTHI3			RTHI4			RLFC			RMFC			RTIB1			RTIB2			RTIB3			RTIB4			RLMAL			RMMAL			RHEE			RMT1			RMT2			RMT5			*61			*62			
		X1	Y1	Z1	X2	Y2	Z2	X3	Y3	Z3	X4	Y4	Z4	X5	Y5	Z5	X6	Y6	Z6	X7	Y7	Z7	X8	Y8	Z8	X9	Y9	Z9	X10	Y10	Z10	X11	Y11	Z11	X12	Y12	Z12	X13	Y13	Z13	X14	Y14	Z14	X15	Y15	Z15	X16	Y16	Z16	X17	Y17	Z17	X18	Y18	Z18	X19	Y19	Z19	X20	Y20	Z20	X21	Y21	Z21	X22	Y22	Z22	X23	Y23	Z23	X24	Y24	Z24	X25	Y25	Z25	X26	Y26	Z26	X27	Y27	Z27	X28	Y28	Z28	X29	Y29	Z29	X30	Y30	Z30	X31	Y31	Z31	X32	Y32	Z32	X33	Y33	Z33	X34	Y34	Z34	X35	Y35	Z35	X36	Y36	Z36	X37	Y37	Z37	X38	Y38	Z38	X39	Y39	Z39	X40	Y40	Z40	X41	Y41	Z41	X42	Y42	Z42	X43	Y43	Z43	X44	Y44	Z44	X45	Y45	Z45	X46	Y46	Z46	X47	Y47	Z47	X48	Y48	Z48	X49	Y49	Z49	X50	Y50	Z50	X51	Y51	Z51	X52	Y52	Z52	X53	Y53	Z53	X54	Y54	Z54	X55	Y55	Z55	X56	Y56	Z56	X57	Y57	Z57	X58	Y58	Z58	X59	Y59	Z59	X60	Y60	Z60	X61	Y61	Z61	X62	Y62	Z62	X63	Y63	Z63	

1	0	-227.4400482177735	1795.6044921875	-989.0140380859377	-371.9566345214844	1719.896240234375	-1047.389038085938	-361.0030822753907	1709.454467773438	-902.8965454101565	-396.6722412109376	1554.5966796875	-973.8804321289065	-414.5825195312501	1271.112426757813	-961.490417480469	-254.3379516601563	1521.897827148438	-984.8252563476565	-320.9709777832032	1552.23095703125	-1153.96337890625	-364.5383911132813	1313.28759765625	-1235.223022460938	-316.3424377441407	1300.098510742188	-1227.96875	-344.0702819824219	1247.147216796875	-1239.798950195313	-327.7255859375001	1190.4462890625	-1239.508911132813	-370.9674377441407	1167.876342773438	-1178.70849609375	-190.5699920654297	938.306335449219	-1152.099731445313	-230.4940032958985	919.9354248046877	-1210.44873046875	-143.4916229248047	869.7278442382815	-1161.510375976563	-301.1136474609376	1548.535766601563	-810.7889404296877	-323.2823181152344	1339.055786132813	-705.1976318359376	-288.1392517089844	1310.107055664063	-721.2700195312501	-323.5069580078126	1270.60986328125	-692.1486206054689	-316.3876647949219	1197.018798828125	-682.0549926757814	-363.4348449707032	1175.042602539063	-742.9113159179689	-179.7572174072266	954.849792480469	-744.8615112304689	-219.4999237060547	933.162536621094	-687.8082885742189	-133.8858795166016	883.2961425781252	-717.6583251953126	-256.9534912109376	1077.346313476563	-1078.920654296875	-257.7338562011719	1090.685546875	-829.7751464843752	-425.5150146484376	1127.240600585938	-955.8603515625002	-439.4808349609376	1097.6943359375	-982.3147583007815	-437.1926269531251	1098.507202148438	-926.4121093750002	-299.0104980468751	753.8557739257814	-1122.52099609375	-270.6414794921876	674.2925415039064	-1113.746215820313	-223.637680053711	678.6178588867189	-1093.509643554688	-299.1416015625001	626.0819702148439	-1093.119018554688	-296.4002075195313	563.6688842773439	-1083.950317382813	-282.1810302734376	556.8828735351564	-964.6243286132815	-269.1000976562501	373.9295654296876	-1012.625305175781	-315.1178283691407	333.8254394531251	-1077.728393554688	-281.2566223144532	327.1563415527344	-1048.850708007813	-295.2639160156251	249.583236694336	-1019.738098144531	-383.1195373535157	119.0573654174805	-1036.878540039063	-344.0157165527344	134.3193664550782	-967.2744140625002	-432.5326232910157	100.7139511108399	-982.213562011719	-233.6402587890626	49.34163284301759	-975.9766845703127	-225.6952667236329	46.72166061401368	-1026.526977539063	-271.3623352050782	34.65338516235352	-1073.469360351563	-314.6540527343751	813.7932128906252	-770.275817871094	-281.0009460449219	756.2222900390626	-766.6757202148439	-248.1257019042969	756.6850585937501	-771.8945312500002	-312.9388427734376	677.9837036132814	-784.4769287109377	-301.1567382812501	542.0773925781251	-794.1666259765627	-301.9829101562501	540.8189697265626	-915.307556152344	-262.9687500000001	365.6538085937501	-820.000915527344	-339.9866943359376	287.5577392578126	-781.1838989257815	-294.6003723144532	289.4210205078126	-792.1008911132815	-286.9949340820313	238.0110626220704	-821.365905761719	-353.9404602050782	121.5429458618164	-790.7025146484377	-325.7008972167969	125.6512832641602	-869.8948364257815	-415.6249084472657	88.09093475341798	-850.9941406250002	-203.2919921875001	50.41389846801759	-847.0662841796877	-206.3164672851563	52.14145660400392	-800.7180786132815	-247.7671661376954	37.44946670532227	-754.5021972656251	nan	nan	nan	nan	nan	nan	
2	0.005	-227.4101715087891	1795.607543945313	-989.0671997070315	-372.0071716308594	1719.876586914063	-1047.420043945313	-360.9367980957032	1709.434204101563	-902.9489746093752	-396.6278076171876	1554.527709960938	-973.9141235351565	-414.5320739746095	1271.05078125	-961.519714355469	-254.2684326171876	1521.9609375	-984.8728637695315	-320.9651489257813	1552.22265625	-1153.974609375	-364.5157165527344	1313.243286132813	-1235.278686523438	-316.3402099609376	1300.070556640625	-1228.028442382813	-344.0094299316407	1247.119995117188	-1239.8486328125	-327.6732177734376	1190.459106445313	-1239.563110351563	-370.8661804199219	1167.856567382813	-1178.722900390625	-190.4063873291016	938.349792480469	-1152.054565429688	-230.2868041992188	919.9641113281252	-1210.399047851563	-143.3127746582032	869.7829589843752	-1161.441162109375	-301.1145019531251	1548.541137695313	-810.8433227539065	-323.2225341796876	1339.057495117188	-705.2226562500001	-288.0308532714844	1310.10498046875	-721.2216186523439	-323.3588256835938	1270.625854492188	-692.1572875976564	-316.1641235351563	1197.017578125	-682.1020507812501	-363.2242431640626	1175.055297851563	-742.9423217773439	-179.5448913574219	954.9236450195315	-744.8244628906251	-219.173080444336	933.2275390625002	-687.8189697265626	-133.5910186767578	883.3929443359377	-717.6605834960939	-256.8767395019532	1077.33740234375	-1078.876953125	-257.6572265625001	1090.6728515625	-829.8047485351565	-425.4461059570314	1127.229614257813	-955.8572998046877	-439.4006652832032	1097.70703125	-982.299011230469	-437.0306701660157	1098.51904296875	-926.3547973632815	-298.9703369140626	753.8669433593751	-1122.4990234375	-270.6110839843751	674.2926635742189	-1113.7763671875	-223.6218261718751	678.6050415039064	-1093.492309570313	-299.1085205078126	626.0958862304689	-1093.126220703125	-296.0541381835938	564.0881958007814	-1083.884887695313	-282.1354980468751	556.9180297851564	-964.626403808594	-269.0933227539063	373.8908386230469	-1012.632629394531	-315.6423950195313	333.7233276367188	-1077.320922851563	-281.1938171386719	327.2146301269532	-1048.829345703125	-295.2504577636719	249.5870056152344	-1019.714477539063	-383.2058715820313	119.53662109375	-1036.70166015625	-343.9653320312501	134.300537109375	-967.2674560546877	-432.4752502441407	100.7023010253907	-982.2135009765627	-233.683578491211	49.33833694458009	-975.9704589843752	-225.7539215087891	46.67555236816407	-1026.533447265625	-271.3489990234376	34.64865875244141	-1073.427001953125	-314.5619201660157	813.7954711914065	-770.2715454101565	-280.9194030761719	756.1975708007814	-766.6982421875001	-248.0720672607422	756.6925048828126	-771.8498535156252	-312.8356323242188	677.9716796875001	-784.4771118164065	-301.2909851074219	542.4077758789064	-794.2666625976565	-301.9496459960938	540.8179321289064	-915.3103637695315	-263.0581359863282	365.0856933593751	-820.2703247070315	-339.9768066406251	287.5869750976563	-781.1924438476565	-294.5906066894532	289.3997497558594	-792.074645996094	-286.9405212402344	238.0190124511719	-821.3955078125002	-353.9181518554688	121.5250320434571	-790.7023925781252	-325.6893920898438	125.6684799194336	-869.900329589844	-415.6420288085939	88.09913635253908	-850.9714965820315	-203.2846069335938	50.41025161743165	-847.0661621093752	-206.3090209960938	52.14699935913087	-800.714782714844	-247.8377532958985	37.41416931152344	-754.4859619140626	nan	nan	nan	nan	nan	nan	
3	0.01	-227.4050445556641	1795.618041992188	-989.1721801757815	-372.0315246582032	1719.888305664063	-1047.43896484375	-360.9146728515626	1709.44775390625	-902.9934082031252	-396.6485290527345	1554.55126953125	-973.9530029296877	-414.4280090332032	1271.061401367188	-961.4891357421877	-254.2406921386719	1521.949462890625	-984.9067382812502	-320.8987121582032	1552.215698242188	-1154.000732421875	-364.4325561523438	1313.228881835938	-1235.285888671875	-316.3062744140626	1300.077392578125	-1228.067993164063	-343.9104003906251	1247.10205078125	-1239.894287109375	-327.5502014160157	1190.413696289063	-1239.577392578125	-370.7828369140626	1167.817016601563	-1178.730102539063	-190.2808990478516	938.3403930664065	-1152.001708984375	-229.4579162597657	919.5528564453127	-1210.339477539063	-143.1206512451172	869.8680419921877	-1161.3759765625	-301.0413818359376	1548.534057617188	-810.8448486328127	-323.0641479492188	1339.102905273438	-705.2451171875001	-287.8789062500001	1310.153564453125	-721.1984863281251	-323.2223510742188	1270.659057617188	-692.1525268554689	-315.9178161621094	1197.031982421875	-682.1497802734376	-363.0640869140626	1175.020874023438	-742.9327392578126	-179.3397521972657	954.9667968750002	-744.7777709960939	-218.9829711914063	933.3172607421877	-687.8070678710939	-133.2855682373047	883.5091552734377	-717.6181030273439	-256.8411865234376	1077.343017578125	-1078.902221679688	-257.5683593750001	1090.652954101563	-829.800231933594	-425.3638305664064	1127.266479492188	-955.8450927734377	-439.3397521972657	1097.651245117188	-982.3179321289065	-437.0180664062501	1098.51220703125	-926.3782348632815	-298.9581604003907	753.8668823242189	-1122.492309570313	-270.5717163085938	674.2727661132814	-1113.77490234375	-223.5741729736329	678.5894165039064	-1093.5	-299.0451049804688	626.1039428710939	-1093.091186523438	-295.9917602539063	564.0663452148439	-1083.873657226563	-282.1709594726563	556.9536132812501	-964.630798339844	-269.0933227539063	373.8908386230469	-1012.632629394531	-315.0936889648438	333.7897033691407	-1077.710571289063	-281.2394409179688	327.1474609375001	-1048.79345703125	-295.1905212402344	249.5867156982422	-1019.767883300781	-383.2229919433594	119.53125	-1036.718505859375	-343.9418640136719	134.2698974609375	-967.2755126953127	-432.5342712402345	100.6592025756836	-982.1982421875002	-233.6519470214844	49.36752700805665	-975.9608154296877	-225.7458801269532	46.69131088256837	-1026.536865234375	-271.3365478515626	34.63369750976563	-1073.43310546875	-314.5110168457032	813.7899169921877	-770.243347167969	-280.8261413574219	756.2017822265626	-766.6998901367189	-247.9583282470704	756.6666870117189	-771.899353027344	-312.7628784179688	677.9968872070314	-784.5021972656252	-301.0381164550782	542.0817260742189	-794.1621704101565	-301.8034057617188	540.8508911132814	-915.3215332031252	-263.0243835449219	365.0779113769532	-820.2926025390627	-339.9444885253907	287.5590209960938	-781.2136230468752	-294.5851745605469	289.4140014648438	-792.0585937500002	-286.9361267089844	238.0014190673829	-821.3918457031252	-353.9244995117188	121.5133972167969	-790.7056274414065	-325.7043457031251	125.6560745239258	-869.9023437500002	-415.6646118164064	88.12241363525392	-850.9680786132815	-203.3190917968751	50.44165420532228	-847.077575683594	-206.3162536621094	52.14237213134767	-800.748474121094	-247.7784118652344	37.43783187866212	-754.4915771484376	nan	nan	nan	nan	nan	nan	
4	0.015	-227.4688873291016	1795.9921875	-989.2329711914065	-372.0160827636719	1719.863037109375	-1047.472290039063	-360.9874572753907	1708.965942382813	-902.5862426757815	-396.6148376464845	1554.521606445313	-973.9645996093752	-414.4130859375001	1271.0537109375	-961.5559082031252	-254.2412872314454	1521.984130859375	-984.9111328125002	-320.9487609863282	1552.218505859375	-1154.031982421875	-364.3693542480469	1313.242553710938	-1235.306274414063	-316.1960144042969	1300.062622070313	-1228.083862304688	-343.8428955078126	1247.096801757813	-1239.884521484375	-327.5418090820313	1190.40380859375	-1239.578735351563	-370.6774291992188	1167.772338867188	-1178.767944335938	-190.1306457519532	938.4451293945315	-1151.981201171875	-230.0114440917969	919.9923095703127	-1210.333862304688	-142.9534759521485	869.9156494140627	-1161.349243164063	-301.0075378417969	1548.57666015625	-810.8997192382815	-322.9077148437501	1339.071044921875	-705.2648315429689	-287.7839660644532	1310.185180664063	-721.2075195312501	-323.0246887207032	1270.636108398438	-692.1653442382814	-315.6743164062501	1197.034790039063	-682.1864624023439	-362.8497619628907	1175.019775390625	-742.8836059570314	-179.1966400146485	954.9964599609377	-744.7470092773439	-218.7439117431641	933.3983154296877	-687.8032836914064	-132.9571990966797	883.5842285156252	-717.6295776367189	-256.7411499023438	1077.335205078125	-1078.926513671875	-257.4021301269532	1090.665649414063	-829.841979980469	-425.302215576172	1127.25146484375	-955.8468017578127	-439.3043823242189	1097.681274414063	-982.3518066406252	-436.929901123047	1098.484985351563	-926.3870849609377	-298.8821411132813	753.8580322265626	-1122.499877929688	-270.5380554199219	674.2876586914064	-1113.7548828125	-223.5200805664063	678.5616455078126	-1093.474731445313	-298.9823608398438	626.1018676757814	-1093.109130859375	-296.2752380371094	563.6412353515626	-1083.9248046875	-282.0340576171876	556.8940429687501	-964.6563110351565	-269.0741271972657	373.8800354003907	-1012.612915039063	-315.1225585937501	333.8092041015626	-1077.741577148438	-281.1841125488282	327.1360778808594	-1048.802978515625	-295.2151794433594	249.5959472656251	-1019.726928710938	-383.1990966796876	119.5658950805664	-1036.717529296875	-343.9663391113282	134.2874450683594	-967.2957153320315	-432.4811096191407	100.6445465087891	-982.2050781250002	-233.6376953125001	49.34284973144533	-975.956970214844	-225.7383117675782	46.69836807250977	-1026.52880859375	-271.3705139160157	34.65002441406251	-1073.433227539063	-314.6002502441407	814.135437011719	-770.6265869140627	-280.7604064941407	756.2196655273439	-766.7266235351564	-247.8528289794922	756.6610717773439	-771.9326171875002	-312.7063293457032	677.9879760742189	-784.4763793945315	-300.9855957031251	542.0871582031251	-794.1776123046877	-301.8223876953126	540.8377685546876	-915.3485107421877	-262.9467163085938	365.0618896484376	-820.2885742187502	-339.9078674316407	287.5893554687501	-781.2088623046877	-294.5397949218751	289.4047546386719	-792.0401000976565	-286.8936767578126	237.9920196533204	-821.425720214844	-353.8801269531251	121.5293273925782	-790.7014770507815	-325.6907958984376	125.6476364135742	-869.9190063476565	-415.6473388671876	88.11416625976564	-850.9907836914065	-203.2818145751954	50.42150497436525	-847.0848388671877	-206.3228149414063	52.10913085937501	-800.7593994140627	-247.8320007324219	37.45702743530274	-754.4938964843751	nan	nan	nan	nan	nan	nan	
